<?xml version="1.0" ?><!DOCTYPE svg  PUBLIC '-//W3C//DTD SVG 1.1//EN'  'http://www.w3.org/Graphics/SVG/1.1/DTD/svg11.dtd'><svg height="512px" style="enable-background:new 0 0 512 512;" version="1.1" viewBox="0 0 512 512" width="512px" xml:space="preserve" xmlns="http://www.w3.org/2000/svg" xmlns:xlink="http://www.w3.org/1999/xlink"><style type="text/css">
<![CDATA[
	.st0{display:inline;}
	.st1{fill:none;stroke:#000000;stroke-width:16;stroke-linecap:round;stroke-linejoin:round;stroke-miterlimit:10;}
	.st2{display:none;}
]]>
</style><g class="st2" id="Layer"><g class="st0"><g><rect class="st1" height="398" width="279" x="127" y="57"/><line class="st1" x1="101" x2="152" y1="137" y2="137"/><line class="st1" x1="101" x2="152" y1="217" y2="217"/><line class="st1" x1="101" x2="152" y1="297" y2="297"/><line class="st1" x1="101" x2="152" y1="377" y2="377"/></g><g><ellipse class="st1" cx="272.75" cy="228.215" rx="44.8" ry="44.615"/><g><path class="st1" d="M303.393,261.079c19.66,14.941,32.957,38.389,32.957,67.32"/><path class="st1" d="M209.15,328.399c0-28.932,13.296-52.38,32.949-67.32"/></g></g></g></g><g id="Layer_copy"><g><path d="M406,49H127c-4.418,0-8,3.582-8,8v72h-18c-4.418,0-8,3.582-8,8s3.582,8,8,8h18v64h-18c-4.418,0-8,3.582-8,8s3.582,8,8,8    h18v64h-18c-4.418,0-8,3.582-8,8s3.582,8,8,8h18v64h-18c-4.418,0-8,3.582-8,8s3.582,8,8,8h18v70c0,4.418,3.582,8,8,8h279    c4.418,0,8-3.582,8-8V57C414,52.582,410.418,49,406,49z M398,447H135v-62h17c4.418,0,8-3.582,8-8s-3.582-8-8-8h-17v-64h17    c4.418,0,8-3.582,8-8s-3.582-8-8-8h-17v-64h17c4.418,0,8-3.582,8-8s-3.582-8-8-8h-17v-64h17c4.418,0,8-3.582,8-8s-3.582-8-8-8h-17    V65h263V447z"/><path d="M201.15,328.399c0,4.418,3.582,8,8,8s8-3.582,8-8c0-22.664,8.913-42.751,25.22-57.191    c8.599,6.052,19.076,9.622,30.38,9.622c11.303,0,21.778-3.569,30.377-9.619c16.31,14.439,25.223,34.526,25.223,57.188    c0,4.418,3.582,8,8,8s8-3.582,8-8c0-26.926-10.461-50.874-29.638-68.3c6.792-8.854,10.838-19.905,10.838-31.885    c0-29.012-23.686-52.615-52.8-52.615c-29.114,0-52.8,23.603-52.8,52.615c0,11.978,4.045,23.027,10.835,31.881    C211.61,277.522,201.15,301.473,201.15,328.399z M272.75,191.6c20.291,0,36.8,16.426,36.8,36.615    c0,20.19-16.509,36.615-36.8,36.615c-20.292,0-36.8-16.425-36.8-36.615C235.95,208.025,252.458,191.6,272.75,191.6z"/></g></g></svg>