<?xml version="1.0" ?><!DOCTYPE svg  PUBLIC '-//W3C//DTD SVG 1.1//EN'  'http://www.w3.org/Graphics/SVG/1.1/DTD/svg11.dtd'><svg height="512px" style="enable-background:new 0 0 512 512;" version="1.1" viewBox="0 0 512 512" width="512px" xml:space="preserve" xmlns="http://www.w3.org/2000/svg" xmlns:xlink="http://www.w3.org/1999/xlink"><g id="layer"><g><g><path d="M256,477c-51.068,0-99.278-4.114-135.749-11.586C78.363,456.833,58,445.249,58,430c0-13.464,15.828-24.016,48.387-32.259     c27.373-6.93,65.458-11.82,107.24-13.769c4.393-0.2,8.158,3.205,8.364,7.618c0.206,4.414-3.205,8.158-7.619,8.364     c-40.741,1.9-77.696,6.622-104.059,13.297C76.133,421.905,74,429.925,74,430c0,1.906,8.802,11.41,49.462,19.74     C158.908,457.001,205.978,461,256,461s97.092-3.999,132.538-11.26C429.198,441.41,438,431.906,438,430     c0-0.075-2.134-8.095-36.313-16.748c-26.362-6.675-63.318-11.396-104.06-13.297c-4.413-0.206-7.824-3.95-7.618-8.364     c0.206-4.413,3.923-7.825,8.364-7.618c41.782,1.948,79.867,6.839,107.24,13.769C438.173,405.984,454,416.536,454,430     c0,15.249-20.362,26.833-62.251,35.414C355.278,472.886,307.068,477,256,477z"/></g><g><path d="M256,439c-3.198,0-6.088-1.904-7.351-4.842C244.54,424.592,148,199.228,148,143c0-59.551,48.449-108,108-108     c59.552,0,108,48.449,108,108c0,56.228-96.54,281.592-100.649,291.158C262.088,437.096,259.197,439,256,439z M256,51     c-50.729,0-92,41.271-92,92c0,44.362,69.002,212.618,92,267.462c22.998-54.844,92-223.1,92-267.462C348,92.271,306.729,51,256,51     z"/></g><g><path d="M256,194c-31.981,0-58-26.019-58-58s26.019-58,58-58s58,26.019,58,58S287.981,194,256,194z M256,94     c-23.159,0-42,18.841-42,42s18.841,42,42,42c23.159,0,42-18.841,42-42S279.159,94,256,94z"/></g></g></g><g id="layer_copy"><g><path d="M256,477c-51.068,0-99.278-4.114-135.749-11.586C78.363,456.833,58,445.249,58,430c0-13.464,15.828-24.016,48.387-32.259    c27.373-6.93,65.458-11.82,107.24-13.769c4.393-0.2,8.158,3.205,8.364,7.618c0.206,4.414-3.205,8.158-7.619,8.364    c-40.741,1.9-77.696,6.622-104.059,13.297C76.133,421.905,74,429.925,74,430c0,1.906,8.802,11.41,49.462,19.74    C158.908,457.001,205.978,461,256,461s97.092-3.999,132.538-11.26C429.198,441.41,438,431.906,438,430    c0-0.075-2.134-8.095-36.313-16.748c-26.362-6.675-63.318-11.396-104.06-13.297c-4.413-0.206-7.824-3.95-7.618-8.364    c0.206-4.413,3.923-7.825,8.364-7.618c41.782,1.948,79.867,6.839,107.24,13.769C438.173,405.984,454,416.536,454,430    c0,15.249-20.362,26.833-62.251,35.414C355.278,472.886,307.068,477,256,477z"/></g><g><path d="M256,439c-3.198,0-6.088-1.904-7.351-4.842C244.54,424.592,148,199.228,148,143c0-59.551,48.449-108,108-108    c59.552,0,108,48.449,108,108c0,56.228-96.54,281.592-100.649,291.158C262.088,437.096,259.197,439,256,439z M256,51    c-50.729,0-92,41.271-92,92c0,44.362,69.002,212.618,92,267.462c22.998-54.844,92-223.1,92-267.462C348,92.271,306.729,51,256,51z    "/></g><g><path d="M256,194c-31.981,0-58-26.019-58-58s26.019-58,58-58s58,26.019,58,58S287.981,194,256,194z M256,94    c-23.159,0-42,18.841-42,42s18.841,42,42,42c23.159,0,42-18.841,42-42S279.159,94,256,94z"/></g></g></svg>