<?xml version="1.0" ?><!DOCTYPE svg  PUBLIC '-//W3C//DTD SVG 1.1//EN'  'http://www.w3.org/Graphics/SVG/1.1/DTD/svg11.dtd'><svg height="512px" style="enable-background:new 0 0 512 512;" version="1.1" viewBox="0 0 512 512" width="512px" xml:space="preserve" xmlns="http://www.w3.org/2000/svg" xmlns:xlink="http://www.w3.org/1999/xlink"><style type="text/css">
<![CDATA[
	.st0{display:inline;}
	.st1{fill:none;stroke:#000000;stroke-width:16;stroke-linecap:round;stroke-linejoin:round;stroke-miterlimit:10;}
	.st2{display:none;}
]]>
</style><g class="st2" id="layer"><g class="st0"><rect class="st1" height="296" width="426" x="43" y="108"/><line class="st1" x1="469" x2="256" y1="108" y2="314"/><line class="st1" x1="43" x2="256" y1="108" y2="314"/><line class="st1" x1="43" x2="193" y1="404" y2="254"/><line class="st1" x1="469" x2="319" y1="404" y2="254"/></g></g><g id="layer_copy"><path d="M470.563,411.845c0.133-0.026,0.261-0.063,0.392-0.096c0.123-0.03,0.246-0.058,0.368-0.095   c0.126-0.038,0.248-0.086,0.372-0.13c0.123-0.044,0.246-0.084,0.367-0.135c0.113-0.047,0.222-0.102,0.333-0.154   c0.126-0.059,0.254-0.115,0.378-0.182c0.103-0.055,0.199-0.117,0.299-0.177c0.125-0.074,0.251-0.145,0.373-0.227   c0.104-0.069,0.201-0.147,0.301-0.221c0.109-0.082,0.222-0.158,0.328-0.246c0.144-0.118,0.279-0.246,0.414-0.374   c0.056-0.052,0.114-0.098,0.169-0.152c0.057-0.057,0.104-0.118,0.158-0.176c0.126-0.133,0.252-0.265,0.368-0.406   c0.091-0.11,0.171-0.228,0.255-0.342c0.07-0.096,0.145-0.188,0.211-0.286c0.085-0.127,0.159-0.258,0.235-0.389   c0.057-0.095,0.115-0.187,0.168-0.283c0.068-0.129,0.128-0.262,0.189-0.394c0.049-0.105,0.102-0.209,0.146-0.316   c0.053-0.127,0.096-0.256,0.141-0.385c0.043-0.118,0.088-0.234,0.125-0.354c0.039-0.129,0.067-0.26,0.1-0.391   c0.031-0.123,0.065-0.244,0.091-0.369c0.03-0.151,0.048-0.305,0.069-0.457c0.015-0.106,0.035-0.21,0.046-0.317   c0.026-0.265,0.04-0.531,0.04-0.797V108c0-0.09-0.011-0.178-0.014-0.268c-0.005-0.153-0.009-0.307-0.023-0.459   c-0.011-0.123-0.029-0.244-0.046-0.365c-0.019-0.137-0.037-0.273-0.063-0.409c-0.024-0.128-0.056-0.253-0.086-0.379   c-0.03-0.127-0.061-0.254-0.098-0.38c-0.037-0.125-0.079-0.246-0.122-0.368c-0.043-0.125-0.087-0.25-0.137-0.373   c-0.047-0.116-0.1-0.229-0.152-0.343c-0.057-0.124-0.113-0.247-0.177-0.368c-0.059-0.11-0.122-0.216-0.185-0.324   c-0.068-0.117-0.137-0.234-0.212-0.349c-0.072-0.11-0.15-0.214-0.228-0.32c-0.076-0.104-0.15-0.209-0.232-0.311   c-0.092-0.114-0.189-0.221-0.287-0.329c-0.064-0.071-0.121-0.146-0.188-0.215c-0.016-0.017-0.034-0.03-0.05-0.047   c-0.106-0.108-0.22-0.208-0.332-0.31c-0.085-0.077-0.167-0.158-0.254-0.231c-0.103-0.085-0.212-0.162-0.319-0.242   c-0.104-0.078-0.204-0.161-0.312-0.233c-0.089-0.061-0.185-0.112-0.276-0.169c-0.129-0.08-0.256-0.164-0.389-0.236   c-0.087-0.047-0.18-0.086-0.27-0.13c-0.142-0.07-0.282-0.145-0.428-0.206c-0.124-0.053-0.255-0.095-0.383-0.141   c-0.114-0.042-0.227-0.089-0.343-0.125c-0.128-0.041-0.262-0.069-0.393-0.103c-0.121-0.031-0.241-0.068-0.363-0.093   c-0.109-0.023-0.222-0.036-0.332-0.054c-0.15-0.025-0.3-0.053-0.451-0.069c-0.096-0.01-0.193-0.012-0.289-0.019   c-0.17-0.012-0.34-0.024-0.511-0.026c-0.02,0-0.038-0.003-0.058-0.003H43c-0.021,0-0.04,0.003-0.061,0.003   c-0.166,0.001-0.331,0.014-0.497,0.025c-0.101,0.007-0.203,0.009-0.303,0.02c-0.147,0.016-0.293,0.043-0.44,0.067   c-0.114,0.019-0.229,0.032-0.341,0.055c-0.12,0.025-0.238,0.061-0.356,0.092c-0.134,0.034-0.269,0.063-0.4,0.104   c-0.108,0.034-0.212,0.079-0.319,0.117c-0.136,0.049-0.274,0.094-0.407,0.15c-0.137,0.058-0.269,0.128-0.403,0.194   c-0.097,0.048-0.198,0.09-0.293,0.142c-0.125,0.068-0.244,0.147-0.366,0.222c-0.1,0.062-0.203,0.119-0.3,0.185   c-0.099,0.067-0.193,0.145-0.29,0.216c-0.114,0.086-0.231,0.168-0.341,0.26c-0.08,0.067-0.155,0.142-0.233,0.212   c-0.12,0.108-0.241,0.216-0.354,0.332c-0.015,0.015-0.031,0.027-0.045,0.042c-0.062,0.063-0.114,0.133-0.173,0.198   c-0.104,0.115-0.208,0.229-0.306,0.35c-0.078,0.096-0.148,0.196-0.221,0.295c-0.082,0.111-0.164,0.221-0.239,0.336   c-0.072,0.11-0.137,0.222-0.203,0.334c-0.065,0.112-0.132,0.223-0.192,0.338c-0.061,0.117-0.116,0.236-0.171,0.355   c-0.055,0.118-0.109,0.235-0.158,0.356c-0.048,0.119-0.09,0.24-0.132,0.361c-0.044,0.126-0.088,0.251-0.126,0.38   c-0.036,0.123-0.065,0.247-0.095,0.371c-0.031,0.129-0.063,0.257-0.087,0.387c-0.025,0.134-0.043,0.268-0.062,0.402   c-0.017,0.124-0.036,0.246-0.047,0.372c-0.014,0.151-0.018,0.302-0.023,0.453C35.011,107.819,35,107.908,35,108v295.997   c0,0.265,0.014,0.53,0.04,0.794c0.011,0.113,0.033,0.224,0.048,0.336c0.021,0.146,0.038,0.292,0.067,0.438   c0.026,0.131,0.062,0.259,0.095,0.388c0.031,0.124,0.058,0.248,0.095,0.371c0.039,0.127,0.086,0.25,0.131,0.375   c0.043,0.121,0.083,0.244,0.133,0.364c0.048,0.115,0.104,0.227,0.158,0.34c0.058,0.124,0.113,0.248,0.178,0.369   c0.058,0.107,0.124,0.21,0.186,0.314c0.071,0.12,0.139,0.24,0.217,0.357c0.076,0.113,0.161,0.22,0.242,0.329   c0.075,0.1,0.144,0.202,0.224,0.3c0.152,0.186,0.314,0.362,0.481,0.533c0.017,0.017,0.031,0.035,0.047,0.052   c0.02,0.02,0.042,0.036,0.062,0.056c0.168,0.164,0.341,0.323,0.523,0.473c0.096,0.079,0.197,0.147,0.295,0.222   c0.111,0.082,0.219,0.168,0.334,0.245c0.115,0.077,0.234,0.144,0.352,0.214c0.106,0.063,0.21,0.13,0.32,0.188   c0.119,0.063,0.242,0.118,0.364,0.176c0.115,0.054,0.228,0.111,0.346,0.16c0.117,0.049,0.237,0.088,0.356,0.131   c0.127,0.045,0.252,0.094,0.383,0.134c0.119,0.036,0.24,0.062,0.36,0.093c0.133,0.033,0.264,0.07,0.399,0.097   c0.139,0.028,0.279,0.044,0.419,0.064c0.118,0.017,0.234,0.039,0.354,0.051C42.473,411.986,42.736,412,43,412h426   c0.264,0,0.527-0.014,0.79-0.04c0.117-0.012,0.232-0.033,0.349-0.05C470.28,411.89,470.423,411.873,470.563,411.845z M51,126.866   l131.063,126.757L51,384.687V126.866z M256,302.87L62.779,116h386.441L256,302.87z M193.566,264.748l56.872,55.003   c0.075,0.072,0.155,0.134,0.231,0.202c0.094,0.084,0.187,0.169,0.283,0.248c0.112,0.092,0.227,0.175,0.343,0.259   c0.101,0.074,0.201,0.15,0.305,0.219c0.12,0.079,0.243,0.149,0.365,0.222c0.104,0.061,0.208,0.125,0.315,0.181   c0.129,0.068,0.263,0.128,0.395,0.188c0.104,0.047,0.207,0.099,0.313,0.141c0.143,0.059,0.288,0.105,0.433,0.155   c0.1,0.034,0.198,0.072,0.298,0.102c0.157,0.047,0.317,0.082,0.476,0.119c0.091,0.021,0.182,0.048,0.274,0.065   c0.18,0.035,0.362,0.058,0.543,0.08c0.073,0.009,0.146,0.023,0.219,0.031c0.255,0.024,0.511,0.037,0.768,0.037c0,0,0,0,0,0   s0.001,0,0.001,0c0.256,0,0.512-0.013,0.768-0.037c0.075-0.008,0.148-0.022,0.222-0.032c0.18-0.022,0.361-0.044,0.54-0.079   c0.095-0.019,0.187-0.045,0.28-0.067c0.157-0.036,0.314-0.07,0.469-0.116c0.104-0.031,0.204-0.07,0.306-0.104   c0.143-0.049,0.286-0.096,0.426-0.152c0.107-0.044,0.212-0.096,0.317-0.144c0.131-0.061,0.263-0.118,0.391-0.186   c0.108-0.058,0.214-0.122,0.32-0.185c0.12-0.07,0.241-0.14,0.358-0.218c0.107-0.07,0.21-0.147,0.313-0.224   c0.112-0.082,0.225-0.164,0.334-0.253c0.1-0.081,0.195-0.169,0.293-0.256c0.073-0.066,0.151-0.127,0.224-0.196l56.872-55.003   L449.686,396H62.314L193.566,264.748z M329.937,253.623L461,126.866v257.819L329.937,253.623z"/></g></svg>